<svg width="512" height="512" xmlns="http://www.w3.org/2000/svg">

 <g>
  <title>background</title>
  <rect fill="none" id="canvas_background" height="770" width="1026" y="-1" x="-1"/>
 </g>
 <g>
  <title>Layer 1</title>
  <g id="svg_1">
   <circle id="svg_2" fill="#bebebe" r="256" cy="256" cx="256"/>
   <path id="svg_3" fill="#bebebe" class="active-path" d="m292.03,509.464c100.421,-14.148 182.122,-86.545 209.829,-181.932l-139.944,-139.943l-49.355,3.839l-60.049,-60.049l-24.093,18.889l-3.16,4.31l-42.277,40.093l74.993,74.993l-144.196,61.549l178.252,178.251z"/>
   <path id="svg_5" fill="#D35933" d="m220.086,331.212l103.084,0l-103.084,0z"/>
   <g stroke="null" id="svg_51">
    <path stroke="null" id="svg_19" fill="#F1F4FB" d="m335.855968,365.984679l-207.688935,0c-6.747479,0 -12.216874,-5.555784 -12.216874,-12.40984l0,-260.609448c0,-6.854055 5.469395,-12.40984 12.216874,-12.40984l207.688935,0c6.747479,0 12.216874,5.555784 12.216874,12.40984l0,260.609448c0,6.854055 -5.469395,12.40984 -12.216874,12.40984z"/>
    <path stroke="null" id="svg_20" fill="#D5DCED" d="m348.072842,353.574839l0,-54.118289c-0.627624,0.226336 -1.293307,0.347237 -1.903632,0.619965c-4.364306,-4.634272 -10.194914,-7.74956 -16.684285,-8.409591c-0.939706,-0.095595 -1.871801,-0.141987 -2.79144,-0.141987c-1.02828,0 -2.046871,0.056936 -3.054392,0.169401l0,-65.321236c0,-15.395793 -12.33105,-27.921612 -27.487448,-27.922315l0,0c-0.921715,0 -1.852425,0.046392 -2.792824,0.141987c-13.847867,1.408628 -24.696008,13.999115 -24.696008,28.665289l0,71.537051l-14.93358,15.169456c-10.546439,10.71302 -14.803488,25.913404 -11.387192,40.661116l2.630901,11.358992l90.883025,0c6.746787,0 12.216874,-5.556487 12.216874,-12.40984z"/>
    <circle stroke="null" transform="matrix(0.6919781416110958,0,0,0.7029079489236245,-1340.8175442652282,-1358.9998533142066) " id="svg_21" fill="#B4E66E" r="26.483" cy="2153.930893" cx="2184.670138"/>
    <circle stroke="null" transform="matrix(0.6919781416110958,0,0,0.7029079489236245,-1340.8175442652282,-1358.9998533142066) " id="svg_22" fill="#DAE169" r="26.483" cy="2251.033893" cx="2184.670138"/>
    <circle stroke="null" transform="matrix(0.6919781416110958,0,0,0.7029079489236245,-1340.8175442652282,-1358.9998533142066) " id="svg_23" fill="#FFDC64" r="26.483" cy="2348.137893" cx="2184.670138"/>
    <path stroke="null" id="svg_24" fill="#7F8499" d="m311.421528,241.884875l-97.735685,0c-3.376161,0 -6.108783,-2.778595 -6.108783,-6.205271s2.73193,-6.205271 6.108783,-6.205271l97.735685,0c3.376161,0 6.108783,2.778595 6.108783,6.205271s-2.73193,6.205271 -6.108783,6.205271z"/>
    <path stroke="null" id="svg_25" fill="#5B5D6E" d="m286.98778,217.065195l-73.301937,0c-3.376161,0 -6.108783,-2.778595 -6.108783,-6.205271c0,-3.426676 2.73193,-6.205271 6.108783,-6.205271l73.301937,0c3.376161,0 6.108783,2.778595 6.108783,6.205271c0,3.426676 -2.73193,6.205271 -6.108783,6.205271z"/>
    <path stroke="null" id="svg_26" fill="#7F8499" d="m311.421528,310.140048l-97.735685,0c-3.376161,0 -6.108783,-2.778595 -6.108783,-6.205271s2.73193,-6.205271 6.108783,-6.205271l97.735685,0c3.376161,0 6.108783,2.778595 6.108783,6.205271s-2.73193,6.205271 -6.108783,6.205271z"/>
    <path stroke="null" id="svg_27" fill="#5B5D6E" d="m286.98778,285.319666l-73.301937,0c-3.376161,0 -6.108783,-2.778595 -6.108783,-6.205271s2.73193,-6.205271 6.108783,-6.205271l73.301937,0c3.376161,0 6.108783,2.778595 6.108783,6.205271s-2.73193,6.205271 -6.108783,6.205271z"/>
    <path stroke="null" id="svg_28" fill="#7F8499" d="m311.421528,173.630404l-97.735685,0c-3.376161,0 -6.108783,-2.778595 -6.108783,-6.205271c0,-3.426676 2.73193,-6.205271 6.108783,-6.205271l97.735685,0c3.376161,0 6.108783,2.778595 6.108783,6.205271c0,3.426676 -2.73193,6.205271 -6.108783,6.205271z"/>
    <path stroke="null" id="svg_29" fill="#5B5D6E" d="m286.98778,148.810022l-73.301937,0c-3.376161,0 -6.108783,-2.778595 -6.108783,-6.205271c0,-3.426676 2.73193,-6.205271 6.108783,-6.205271l73.301937,0c3.376161,0 6.108783,2.778595 6.108783,6.205271c0,3.427379 -2.73193,6.205271 -6.108783,6.205271z"/>
    <path stroke="null" id="svg_30" fill="#F0C087" d="m389.35349,316.425451c-9.141031,-0.929947 -16.846208,6.336715 -16.846208,15.431641l0,-5.32031c0,-8.114369 -5.74757,-15.508258 -13.697015,-16.316602c-9.140339,-0.929947 -16.845516,6.336715 -16.845516,15.431641l0,-5.32031c0,-8.114369 -5.74757,-15.508258 -13.697015,-16.316602c-9.140339,-0.929947 -16.845516,6.336715 -16.845516,15.431641l0,-93.07415c0,-9.094926 -7.705177,-16.361588 -16.846208,-15.431641c-7.948061,0.808344 -13.696323,8.202233 -13.696323,16.316602l0,76.677417l-18.511799,18.804193c-7.4789,7.597029 -10.556127,18.584886 -8.133511,29.044156l12.780836,55.174759c4.54422,19.62027 21.780012,33.486535 41.622485,33.486535l51.652708,0c23.615138,0 42.759405,-19.446651 42.759405,-43.434791l0,-64.267577c-0.000692,-8.114369 -5.74757,-15.508258 -13.696323,-16.316602z"/>
    <g stroke="null" transform="matrix(0.6919781416110958,0,0,0.7029079489236245,-1340.8175442652282,-1358.9998533142066) " id="svg_31">
     <path stroke="null" id="svg_32" fill="#E6AF78" d="m2396.532184,2409.376878c4.875,0 8.828,-3.953 8.828,-8.828l0,-34.194c-10.052,2.061 -17.655,10.844 -17.655,21.506l0,12.687c-0.001,4.877 3.952,8.829 8.827,8.829z"/>
     <path stroke="null" id="svg_33" fill="#E6AF78" d="m2440.670184,2418.204878c4.875,0 8.828,-3.953 8.828,-8.828l0,-34.194c-10.052,2.061 -17.655,10.844 -17.655,21.506l0,12.687c-0.001,4.876 3.952,8.829 8.827,8.829z"/>
     <path stroke="null" id="svg_34" fill="#E6AF78" d="m2484.808184,2427.031878c4.875,0 8.828,-3.953 8.828,-8.828l0,-34.194c-10.052,2.061 -17.655,10.844 -17.655,21.506l0,12.687c-0.001,4.877 3.952,8.829 8.827,8.829z"/>
     <path stroke="null" id="svg_35" fill="#E6AF78" d="m2345.555184,2512.359878l-20.467,-86.985c-2.259,-9.601 0.61,-19.688 7.585,-26.663l10.893,-10.894l0,22.113c0,4.875 3.953,8.828 8.828,8.828c4.875,0 8.828,-3.953 8.828,-8.828l0,-175.998c-10.344,2.173 -17.655,11.972 -17.655,22.773l0,109.087l-26.752,26.752c-10.808,10.808 -15.255,26.44 -11.754,41.32l18.47,78.495c6.567,27.913 31.475,47.64 60.15,47.64l22.026,0c-28.677,0 -53.584,-19.727 -60.152,-47.64z"/>
    </g>
    <g stroke="null" transform="matrix(0.6919781416110958,0,0,0.7029079489236245,-1340.8175442652282,-1358.9998533142066) " id="svg_36"/>
    <g stroke="null" transform="matrix(0.6919781416110958,0,0,0.7029079489236245,-1340.8175442652282,-1358.9998533142066) " id="svg_37"/>
    <g stroke="null" transform="matrix(0.6919781416110958,0,0,0.7029079489236245,-1340.8175442652282,-1358.9998533142066) " id="svg_38"/>
    <g stroke="null" transform="matrix(0.6919781416110958,0,0,0.7029079489236245,-1340.8175442652282,-1358.9998533142066) " id="svg_39"/>
    <g stroke="null" transform="matrix(0.6919781416110958,0,0,0.7029079489236245,-1340.8175442652282,-1358.9998533142066) " id="svg_40"/>
    <g stroke="null" transform="matrix(0.6919781416110958,0,0,0.7029079489236245,-1340.8175442652282,-1358.9998533142066) " id="svg_41"/>
    <g stroke="null" transform="matrix(0.6919781416110958,0,0,0.7029079489236245,-1340.8175442652282,-1358.9998533142066) " id="svg_42"/>
    <g stroke="null" transform="matrix(0.6919781416110958,0,0,0.7029079489236245,-1340.8175442652282,-1358.9998533142066) " id="svg_43"/>
    <g stroke="null" transform="matrix(0.6919781416110958,0,0,0.7029079489236245,-1340.8175442652282,-1358.9998533142066) " id="svg_44"/>
    <g stroke="null" transform="matrix(0.6919781416110958,0,0,0.7029079489236245,-1340.8175442652282,-1358.9998533142066) " id="svg_45"/>
    <g stroke="null" transform="matrix(0.6919781416110958,0,0,0.7029079489236245,-1340.8175442652282,-1358.9998533142066) " id="svg_46"/>
    <g stroke="null" transform="matrix(0.6919781416110958,0,0,0.7029079489236245,-1340.8175442652282,-1358.9998533142066) " id="svg_47"/>
    <g stroke="null" transform="matrix(0.6919781416110958,0,0,0.7029079489236245,-1340.8175442652282,-1358.9998533142066) " id="svg_48"/>
    <g stroke="null" transform="matrix(0.6919781416110958,0,0,0.7029079489236245,-1340.8175442652282,-1358.9998533142066) " id="svg_49"/>
    <g stroke="null" transform="matrix(0.6919781416110958,0,0,0.7029079489236245,-1340.8175442652282,-1358.9998533142066) " id="svg_50"/>
   </g>
  </g>
 </g>
</svg>