<svg width="512" height="512" xmlns="http://www.w3.org/2000/svg">

 <g>
  <title>background</title>
  <rect fill="none" id="canvas_background" height="770" width="1026" y="-1" x="-1"/>
 </g>
 <g>
  <title>Layer 1</title>
  <g id="svg_1">
   <circle id="svg_2" fill="#bebebe" r="256" cy="256" cx="256"/>
   <path id="svg_3" fill="#bebebe" class="active-path" d="m292.03,509.464c100.421,-14.148 182.122,-86.545 209.829,-181.932l-139.944,-139.943l-49.355,3.839l-60.049,-60.049l-24.093,18.889l-3.16,4.31l-42.277,40.093l74.993,74.993l-144.196,61.549l178.252,178.251z"/>
   <path id="svg_5" fill="#D35933" d="m220.086,331.212l103.084,0l-103.084,0z"/>
   <g stroke="null" id="svg_123">
    <g stroke="null" transform="matrix(0.6753337931840865,0,0,0.8219077822558385,-1278.4274934603934,-1651.861099472796) " id="svg_56">
     <g stroke="null" id="svg_57">
      <rect stroke="null" id="svg_58" fill="#FFFFFF" height="256" width="416" y="2185.410845" x="2057.439449"/>
     </g>
     <g stroke="null" id="svg_59">
      <rect stroke="null" id="svg_60" fill="#FF4F19" height="64" width="416" y="2185.410845" x="2057.439449"/>
     </g>
     <g stroke="null" id="svg_61">
      <path stroke="null" id="svg_62" fill="#5C546A" d="m2468.572449,2153.410845l-406.281,0c-20.321,0 -36.852,16.493 -36.852,36.766l0,291.234c0,4.422 3.578,8 8,8l464,0c4.422,0 8,-3.578 8,-8l0,-291.234c0,-20.273 -16.539,-36.766 -36.867,-36.766zm-411.133,280l0,-240c0,-4.418 3.582,-8 8,-8l400,0c4.418,0 8,3.582 8,8l0,240c0,4.418 -3.582,8 -8,8l-400,0c-4.418,0 -8,-3.582 -8,-8z"/>
     </g>
     <g stroke="null" id="svg_63">
      <path stroke="null" id="svg_64" fill="#B9BBC1" d="m2513.439449,2473.410845l-496,0c-4.422,0 -8,3.578 -8,8l0,0c0,17.664 14.367,32.031 32.031,32.031l447.937,0c17.664,0 32.031,-14.367 32.031,-32.031l0,0c0.001,-4.422 -3.577,-8 -7.999,-8z"/>
     </g>
     <g stroke="null" id="svg_65">
      <g stroke="null" id="svg_66">
       <path stroke="null" id="svg_67" fill="#FFD200" d="m2153.439449,2225.410845l-56,0c-4.422,0 -8,-3.578 -8,-8c0,-4.422 3.578,-8 8,-8l56,0c4.422,0 8,3.578 8,8c0,4.422 -3.578,8 -8,8z"/>
      </g>
     </g>
     <g stroke="null" id="svg_68">
      <g stroke="null" id="svg_69">
       <path stroke="null" id="svg_70" fill="#FFFFFF" d="m2297.439449,2225.410845l-8,0c-4.422,0 -8,-3.578 -8,-8c0,-4.422 3.578,-8 8,-8l8,0c4.422,0 8,3.578 8,8c0,4.422 -3.578,8 -8,8z"/>
      </g>
     </g>
     <g stroke="null" id="svg_71">
      <g stroke="null" id="svg_72">
       <path stroke="null" id="svg_73" fill="#FFFFFF" d="m2337.439449,2225.410845l-8,0c-4.422,0 -8,-3.578 -8,-8c0,-4.422 3.578,-8 8,-8l8,0c4.422,0 8,3.578 8,8c0,4.422 -3.578,8 -8,8z"/>
      </g>
     </g>
     <g stroke="null" id="svg_74">
      <g stroke="null" id="svg_75">
       <path stroke="null" id="svg_76" fill="#FFFFFF" d="m2377.439449,2225.410845l-8,0c-4.422,0 -8,-3.578 -8,-8c0,-4.422 3.578,-8 8,-8l8,0c4.422,0 8,3.578 8,8c0,4.422 -3.578,8 -8,8z"/>
      </g>
     </g>
     <g stroke="null" id="svg_77">
      <g stroke="null" id="svg_78">
       <path stroke="null" id="svg_79" fill="#FFFFFF" d="m2417.439449,2225.410845l-8,0c-4.422,0 -8,-3.578 -8,-8c0,-4.422 3.578,-8 8,-8l8,0c4.422,0 8,3.578 8,8c0,4.422 -3.578,8 -8,8z"/>
      </g>
     </g>
     <g stroke="null" id="svg_80">
      <path stroke="null" id="svg_81" fill="#53DCFF" d="m2233.439449,2417.410845l-136,0c-4.418,0 -8,-3.582 -8,-8l0,-128c0,-4.418 3.582,-8 8,-8l136,0c4.418,0 8,3.582 8,8l0,128c0,4.418 -3.582,8 -8,8z"/>
     </g>
     <g stroke="null" id="svg_82">
      <g stroke="null" id="svg_83">
       <path stroke="null" id="svg_84" fill="#FF4F19" d="m2425.439449,2289.410845l-152,0c-4.422,0 -8,-3.578 -8,-8c0,-4.422 3.578,-8 8,-8l152,0c4.422,0 8,3.578 8,8c0,4.422 -3.578,8 -8,8z"/>
      </g>
     </g>
     <g stroke="null" id="svg_85">
      <g stroke="null" id="svg_86">
       <path stroke="null" id="svg_87" fill="#B9BBC1" d="m2337.439449,2353.410845l-64,0c-4.422,0 -8,-3.578 -8,-8s3.578,-8 8,-8l64,0c4.422,0 8,3.578 8,8s-3.578,8 -8,8z"/>
      </g>
     </g>
     <g stroke="null" id="svg_88">
      <g stroke="null" id="svg_89">
       <path stroke="null" id="svg_90" fill="#B9BBC1" d="m2337.439449,2385.410845l-64,0c-4.422,0 -8,-3.578 -8,-8s3.578,-8 8,-8l64,0c4.422,0 8,3.578 8,8s-3.578,8 -8,8z"/>
      </g>
     </g>
     <g stroke="null" id="svg_91">
      <g stroke="null" id="svg_92">
       <path stroke="null" id="svg_93" fill="#B9BBC1" d="m2337.439449,2417.410845l-64,0c-4.422,0 -8,-3.578 -8,-8s3.578,-8 8,-8l64,0c4.422,0 8,3.578 8,8s-3.578,8 -8,8z"/>
      </g>
     </g>
     <g stroke="null" id="svg_94">
      <g stroke="null" id="svg_95">
       <path stroke="null" id="svg_96" fill="#B9BBC1" d="m2433.439449,2353.410845l-64,0c-4.422,0 -8,-3.578 -8,-8s3.578,-8 8,-8l64,0c4.422,0 8,3.578 8,8s-3.578,8 -8,8z"/>
      </g>
     </g>
     <g stroke="null" id="svg_97">
      <g stroke="null" id="svg_98">
       <path stroke="null" id="svg_99" fill="#B9BBC1" d="m2433.439449,2385.410845l-64,0c-4.422,0 -8,-3.578 -8,-8s3.578,-8 8,-8l64,0c4.422,0 8,3.578 8,8s-3.578,8 -8,8z"/>
      </g>
     </g>
     <g stroke="null" id="svg_100">
      <g stroke="null" id="svg_101">
       <path stroke="null" id="svg_102" fill="#B9BBC1" d="m2433.439449,2417.410845l-64,0c-4.422,0 -8,-3.578 -8,-8s3.578,-8 8,-8l64,0c4.422,0 8,3.578 8,8s-3.578,8 -8,8z"/>
      </g>
     </g>
     <g stroke="null" id="svg_103">
      <g stroke="null" id="svg_104">
       <path stroke="null" id="svg_105" fill="#E9001E" d="m2377.439449,2321.410845l-104,0c-4.422,0 -8,-3.578 -8,-8c0,-4.422 3.578,-8 8,-8l104,0c4.422,0 8,3.578 8,8c0,4.422 -3.578,8 -8,8z"/>
      </g>
     </g>
     <g stroke="null" id="svg_106">
      <path stroke="null" id="svg_107" fill="#8B8996" d="m2233.439449,2489.410845l64,0c8.836,0 16,-7.164 16,-16l-96,0c0,8.837 7.163,16 16,16z"/>
     </g>
    </g>
    <g stroke="null" transform="matrix(0.6370152102004777,0,0,0.7860531265120247,-1190.8429665114754,-1574.5660369757254) " id="svg_108"/>
    <g stroke="null" transform="matrix(0.6370152102004777,0,0,0.7860531265120247,-1190.8429665114754,-1574.5660369757254) " id="svg_109"/>
    <g stroke="null" transform="matrix(0.6370152102004777,0,0,0.7860531265120247,-1190.8429665114754,-1574.5660369757254) " id="svg_110"/>
    <g stroke="null" transform="matrix(0.6370152102004777,0,0,0.7860531265120247,-1190.8429665114754,-1574.5660369757254) " id="svg_111"/>
    <g stroke="null" transform="matrix(0.6370152102004777,0,0,0.7860531265120247,-1190.8429665114754,-1574.5660369757254) " id="svg_112"/>
    <g stroke="null" transform="matrix(0.6370152102004777,0,0,0.7860531265120247,-1190.8429665114754,-1574.5660369757254) " id="svg_113"/>
    <g stroke="null" transform="matrix(0.6370152102004777,0,0,0.7860531265120247,-1190.8429665114754,-1574.5660369757254) " id="svg_114"/>
    <g stroke="null" transform="matrix(0.6370152102004777,0,0,0.7860531265120247,-1190.8429665114754,-1574.5660369757254) " id="svg_115"/>
    <g stroke="null" transform="matrix(0.6370152102004777,0,0,0.7860531265120247,-1190.8429665114754,-1574.5660369757254) " id="svg_116"/>
    <g stroke="null" transform="matrix(0.6370152102004777,0,0,0.7860531265120247,-1190.8429665114754,-1574.5660369757254) " id="svg_117"/>
    <g stroke="null" transform="matrix(0.6370152102004777,0,0,0.7860531265120247,-1190.8429665114754,-1574.5660369757254) " id="svg_118"/>
    <g stroke="null" transform="matrix(0.6370152102004777,0,0,0.7860531265120247,-1190.8429665114754,-1574.5660369757254) " id="svg_119"/>
    <g stroke="null" transform="matrix(0.6370152102004777,0,0,0.7860531265120247,-1190.8429665114754,-1574.5660369757254) " id="svg_120"/>
    <g stroke="null" transform="matrix(0.6370152102004777,0,0,0.7860531265120247,-1190.8429665114754,-1574.5660369757254) " id="svg_121"/>
    <g stroke="null" transform="matrix(0.6370152102004777,0,0,0.7860531265120247,-1190.8429665114754,-1574.5660369757254) " id="svg_122"/>
   </g>
  </g>
 </g>
</svg>