<svg width="512" height="512" xmlns="http://www.w3.org/2000/svg">

 <g>
  <title>background</title>
  <rect fill="none" id="canvas_background" height="770" width="1026" y="-1" x="-1"/>
 </g>
 <g>
  <title>Layer 1</title>
  <g id="svg_1">
   <circle id="svg_2" fill="#bebebe" r="256" cy="256" cx="256"/>
   <path id="svg_5" fill="#D35933" d="m220.086,331.212l103.084,0l-103.084,0z"/>
   <g stroke="null" id="svg_135">
    <path stroke="null" id="svg_127" fill="#e64c3c" d="m152.897016,194.881106c-0.805147,-6.986453 -0.632616,-14.053675 0.507592,-20.992171c0.472586,-2.766312 2.870523,-4.772899 5.651028,-4.732514c9.719267,0.055528 31.755775,1.824858 43.622933,15.628655l-27.76755,35.707136l-22.014004,-25.611106zm0,0"/>
    <path stroke="null" id="svg_128" fill="#f09372" d="m299.306143,396.569509c-8.361521,0.721867 -16.760548,0.933883 -25.147073,0.628478c-6.723723,-0.22716 -13.392436,-0.456845 -20.058648,-0.855638l-62.158804,-8.213121c-14.530143,-2.635064 -27.892573,-9.750242 -38.254457,-20.363694c-0.960175,-1.140851 -1.86534,-2.281703 -2.712993,-3.478083c-5.711039,-7.869856 -13.082379,-14.359079 -21.583925,-18.995681c-8.364022,-4.563406 -17.970768,-6.443791 -25.824697,-11.976416c-1.920349,-1.312484 -9.096655,-5.704257 -9.549237,-8.271173l-9.211675,-46.772386c-0.655119,-3.258494 0.05501,-6.645713 1.960357,-9.356497c1.905346,-2.710784 4.835879,-4.507877 8.098973,-4.959675c9.436716,-1.256956 21.868977,-4.222665 28.592699,-11.06525c5.593518,-5.704257 10.791963,-11.807308 16.160439,-17.74125l37.351793,-34.336601c6.116113,-4.538165 12.494773,-8.71035 19.098474,-12.491314c8.329015,-4.735038 17.090608,-8.649774 26.162258,-11.693727l106.684402,3.765819c4.350791,1.711278 8.589062,3.536135 12.772323,5.588153c41.362523,20.136533 72.893257,60.576184 70.632846,108.888214c-1.955355,34.551141 -21.091336,65.760495 -50.856749,82.933843l-62.156304,18.765997zm0,0"/>
    <path stroke="null" id="svg_129" fill="#e64c3c" d="m254.100421,395.418562l0,7.597263c0,6.299923 -5.06092,11.408515 -11.302055,11.408515l-39.554693,0c-6.241135,0 -11.302055,-5.108591 -11.302055,-11.408515l0,-14.831068c0,-3.382171 1.48777,-6.590184 4.060738,-8.758307c2.572968,-2.168123 5.966085,-3.071717 9.264185,-2.465955l39.554693,7.26157c5.363476,0.984363 9.266686,5.694161 9.279188,11.196498zm0,0"/>
    <path stroke="null" id="svg_130" fill="#e64c3c" d="m299.306143,394.613403l0,8.402421c0,6.299923 5.05842,11.408515 11.299555,11.408515l39.554693,0c6.243636,0 11.302055,-5.108591 11.302055,-11.408515l0,-19.29099c0,-3.556327 -1.640298,-6.908209 -4.440808,-9.066235c-2.798008,-2.158027 -6.43367,-2.877369 -9.831787,-1.940962l-39.554694,10.888569c-4.918395,1.352868 -8.331515,5.86327 -8.329015,11.007197zm0,0"/>
    <path stroke="null" id="svg_131" fill="#f0785a" d="m129.785313,202.357217c-0.087516,-2.811745 1.87034,-5.267604 4.610839,-5.782502c11.002001,-2.195887 38.424488,-5.482145 51.789419,12.503934c16.950583,22.814505 -5.651028,39.927277 -22.604111,39.927277c-16.155438,0.005048 -32.315877,-15.550411 -33.796146,-46.648709zm0,0"/>
    <path stroke="null" id="svg_132" fill="#f0c419" d="m244.381153,199.898833c-24.419441,-15.017846 -35.536462,-44.91724 -26.937399,-72.444068c8.596564,-27.529351 34.691309,-45.586102 63.228999,-43.751148s52.151984,23.084574 57.222907,51.489756c5.070922,28.407706 -9.711766,56.641255 -35.821514,68.413227l-57.692993,-3.707767zm0,0"/>
    <path stroke="null" id="svg_133" fill="#804537" d="m338.860836,226.193945c-1.222723,0.002524 -2.412939,-0.396269 -3.390617,-1.140851c-42.532735,-32.198766 -113.295605,-16.284898 -114.003233,-16.113265c-3.043054,0.709246 -6.078606,-1.206476 -6.781233,-4.278193c-0.702628,-3.071717 1.195217,-6.135863 4.23827,-6.842585c3.108065,-0.719342 76.556423,-17.2945 123.327429,18.109755c1.945353,1.471497 2.737998,4.035888 1.970358,6.365547c-0.77014,2.329659 -2.930533,3.899592 -5.360975,3.899592zm0,0"/>
    <path stroke="null" id="svg_134" fill="#b19046" d="m282.353059,142.245451l0,-22.817029c6.498682,1.633032 11.302055,5.898606 11.302055,10.802753c0,3.152485 2.53046,5.704257 5.651028,5.704257s5.651028,-2.551771 5.651028,-5.704257c0,-11.080394 -9.726769,-20.343502 -22.604111,-22.478812l0,-1.340248c0,-3.149962 -2.53046,-5.704257 -5.651028,-5.704257s-5.651028,2.554296 -5.651028,5.704257l0,1.352868c-12.877342,2.132787 -22.601611,11.408515 -22.601611,22.478812c0,11.070297 9.724269,20.346025 22.601611,22.478812l0,22.817029c-6.496181,-1.633032 -11.299555,-5.898606 -11.299555,-10.805277c0,-3.149962 -2.53046,-5.704257 -5.651028,-5.704257s-5.651028,2.554296 -5.651028,5.704257c0,12.65285 12.674805,22.948278 28.252638,22.948278c15.580334,0 28.255139,-10.267663 28.255139,-22.948278c0,-11.093014 -9.726769,-20.36117 -22.604111,-22.488908zm-22.601611,-11.978941c0,-4.904147 4.803374,-9.172244 11.299555,-10.802753l0,21.605505c-6.496181,-1.653225 -11.299555,-5.921322 -11.299555,-10.825469l0,0.022716zm22.601611,45.278173l0,-21.623174c6.498682,1.625461 11.302055,5.891034 11.302055,10.797705c0,4.904146 -4.803373,9.16972 -11.302055,10.802753l0,0.022716zm0,0"/>
   </g>
  </g>
 </g>
</svg>