<svg width="512" height="512" xmlns="http://www.w3.org/2000/svg">
 <g>
  <title>background</title>
  <rect x="-1" y="-1" width="514" height="514" id="canvas_background" fill="none"/>
 </g>

 <g>
  <title>Layer 1</title>
  <g id="svg_1">
   <circle cx="255.666665" cy="256" r="256" fill="#bebebe" id="svg_2"/>
   <path d="m219.752665,331.212l103.084,0l-103.084,0z" fill="#D35933" id="svg_5"/>
   <g id="svg_157" stroke="null">
    <g id="svg_140" transform="matrix(1.1990891896786855,0,0,1.4499037862508535,-578.9034586237821,-791.9013349598964) " stroke="null">
     <g id="svg_141" stroke="null">
      <g id="svg_142" stroke="null">
       <path d="m815.31875,728.19415l-28.791,0l-8.053,-52.359c5.189,3.445 11.409,5.456 18.094,5.456c18.094,0 32.813,-14.728 32.813,-32.817s-14.719,-32.813 -32.813,-32.813s-32.813,14.719 -32.813,32.813c0,3.802 0.684,7.439 1.88,10.838l-17.934,-15.356c-3.647,-3.122 -8.292,-4.823 -13.088,-4.823l-64.608,0c-7.753,0 -14.063,6.309 -14.063,14.063s6.309,14.063 14.063,14.063l58.036,0l-48.783,38.311c-8.859,6.961 -13.941,17.409 -13.941,28.678c0,12.469 6.263,23.934 16.758,30.684l43.5,27.961l-36.67,15.281c-3.684,1.533 -6.581,4.561 -7.95,8.302c-1.369,3.75 -1.111,7.936 0.717,11.489c2.531,4.912 7.547,7.772 12.764,7.772c1.936,0 3.9,-0.394 5.77,-1.223l50.55,-22.313c7.894,-3.675 12.998,-11.686 12.998,-20.405c0,-5.934 -2.405,-11.738 -6.6,-15.923l-28.73,-28.734l27.084,-23.705l2.091,16.72c1.148,9.211 9.009,16.167 18.286,16.167l39.431,0c7.753,0 14.063,-6.309 14.063,-14.063c0.002,-7.755 -6.307,-14.064 -14.061,-14.064zm-18.75,-103.163c12.923,0 23.438,10.514 23.438,23.438s-10.514,23.438 -23.438,23.438c-12.923,0 -23.438,-10.514 -23.438,-23.438s10.515,-23.438 23.438,-23.438zm18.75,121.913l-39.431,0c-4.556,0 -8.419,-3.427 -8.986,-7.95l-4.28,-34.228l-47.916,41.916l35.822,35.822c2.452,2.442 3.853,5.827 3.853,9.295c0,5.086 -2.981,9.764 -7.5,11.873l-50.466,22.27c-2.4,1.073 -5.213,0.07 -6.413,-2.259c-0.642,-1.252 -0.727,-2.658 -0.248,-3.98c0.483,-1.312 1.458,-2.334 2.752,-2.873l39.839,-16.598c2.611,-1.083 4.388,-3.506 4.636,-6.323s-1.073,-5.517 -3.45,-7.041l-46.387,-29.823c-7.795,-5.02 -12.45,-13.542 -12.45,-22.809c0,-8.372 3.778,-16.144 10.359,-21.319l57.628,-45.258l-9.797,-9.778l-62.878,0c-2.583,0 -4.688,-2.1 -4.688,-4.688c0,-2.588 2.105,-4.688 4.688,-4.688l64.608,0c2.559,0 5.039,0.9 6.984,2.564l27.164,23.297l9.722,63.202l36.834,0c2.583,0 4.688,2.1 4.688,4.688s-2.104,4.688 -4.687,4.688z" fill="#FFA300" id="svg_143" stroke="null"/>
       <path d="m612.43475,824.27315c-2.353,2.677 -6.314,3.136 -9.206,1.073c-1.584,-1.13 -2.597,-2.817 -2.845,-4.744c-0.248,-1.931 0.3,-3.811 1.547,-5.306l62.306,-74.766l-7.2,-6.005l-62.311,74.77c-2.892,3.469 -4.219,8.03 -3.642,12.511s3.019,8.555 6.698,11.18c2.869,2.044 6.173,3.037 9.459,3.037c4.538,0 9.033,-1.903 12.244,-5.569l54.047,-61.706l-7.055,-6.178l-54.042,61.703z" fill="#FFA300" id="svg_144" stroke="null"/>
       <rect x="580.943754" y="676.631149" width="103.125" height="9.375" fill="#FFA300" id="svg_145" stroke="null"/>
       <rect x="552.818754" y="676.631149" width="18.75" height="9.375" fill="#FFA300" id="svg_146" stroke="null"/>
       <rect x="590.318754" y="695.381149" width="70.313" height="9.375" fill="#FFA300" id="svg_147" stroke="null"/>
       <rect x="562.193754" y="695.381149" width="18.75" height="9.375" fill="#FFA300" id="svg_148" stroke="null"/>
       <rect x="595.006754" y="714.131149" width="60.938" height="9.375" fill="#FFA300" id="svg_149" stroke="null"/>
       <rect x="571.568754" y="714.131149" width="14.063" height="9.375" fill="#FFA300" id="svg_150" stroke="null"/>
       <rect x="571.568754" y="657.881149" width="79.688" height="9.375" fill="#FFA300" id="svg_151" stroke="null"/>
       <rect y="657.881149" width="18.75" height="9.375" fill="#FFA300" id="svg_152" x="543.443754" stroke="null"/>
       <rect x="552.818754" y="667.256149" width="98.438" height="9.375" class="active-path" fill="#E1DFDF" id="svg_153" stroke="null"/>
       <rect x="562.193754" y="686.006149" width="121.875" height="9.375" class="active-path" fill="#E1DFDF" id="svg_154" stroke="null"/>
       <rect x="571.568754" y="704.756149" width="89.063" height="9.375" class="active-path" fill="#E1DFDF" id="svg_155" stroke="null"/>
       <rect x="580.943754" y="723.506149" width="75" height="9.375" class="active-path" fill="#E1DFDF" id="svg_156" stroke="null"/>
      </g>
     </g>
    </g>
   </g>
  </g>
  <path stroke="#fff" transform="rotate(-26.996347427368164 254.85147094726545,398.7913818359375) " id="svg_4" d="m261.260761,404.850092l-6.409287,0l0,0c-3.539752,0 -6.409287,-2.712584 -6.409287,-6.058725c0,-3.346142 2.869535,-6.058725 6.409287,-6.058725l6.409287,0l0,12.117451z" stroke-width="1.5" fill="#ffffff"/>
  <path stroke="#fff" transform="rotate(124.68511199951172 148.95199584960935,397.73095703125006) " id="svg_6" d="m140.971184,389.520807l7.980808,0l0,0c4.407679,0 7.980808,3.675815 7.980808,8.210163c0,4.534349 -3.573129,8.210163 -7.980808,8.210163l-7.980808,0l0,-16.420326z" fill-opacity="null" stroke-opacity="null" stroke-width="1.5" fill="#ffffff"/>
  <path id="svg_7" d="m147.000678,385.33511c0,0 70.333658,-102.66714 70.333658,-102.66714c0,0 3.333349,31.666813 3.333349,31.666813c0,0 -59.666942,80.667038 -59.666942,80.667038c0,0 -14.000065,-9.666711 -14.000065,-9.666711z" fill-opacity="null" stroke-opacity="null" stroke-width="1.5" stroke="#fff" fill="#ffffff"/>
  <path id="svg_9" d="m312.001438,176.000811c0,0 -70.000323,66.666974 -70.000323,66.666974c0,0 -4.666688,5.666693 -4.666688,5.666693c0,0 -4.333353,9.333376 -4.333353,9.333376c0,0 -2.333344,11.000051 -2.333344,11.000051c0,0 0.333335,13.00006 0.333335,13.00006c0,0 3.666684,10.666716 3.666684,10.666716c0,0 4.000018,6.000028 4.000018,6.000028c0,0 5.666693,6.333363 5.666693,6.333363c0,0 59.666942,47.000217 59.666942,47.000217c0,0 1.000005,3.666684 1.000005,3.666684c0,0 0,6.000028 0,6.000028c0,0 -2.000009,5.000023 -2.000009,5.000023c0,0 -2.333344,2.000009 -2.333344,2.000009c0,0 -43.333533,21.666767 -43.333533,21.666767c0,0 6.000028,12.000055 6.000028,12.000055c0,0 56.333593,-30.333473 56.333593,-30.333473c0,0 5.000023,-7.333367 5.000023,-7.333367c0,0 1.333339,-7.000032 1.333339,-7.000032c0,0 -0.66667,-6.000028 -0.66667,-6.000028c0,0 -2.333344,-6.333363 -2.333344,-6.333363c0,0 -44.000203,-54.333584 -44.000203,-54.333584c0,0 57.000263,-60.666946 57.000263,-60.666946c0,0 5.333358,51.33357 5.333358,51.33357c0,0 1.666674,5.000023 1.666674,5.000023c0,0 5.666693,4.666688 5.666693,4.666688c0,0 51.33357,0.333335 51.33357,0.333335c0,0 3.333349,-2.666679 3.333349,-2.666679c0,0 1.333339,-4.333353 1.333339,-4.333353c0,0 -1.000005,-4.000018 -1.000005,-4.000018c0,0 -3.000014,-2.333344 -3.000014,-2.333344c0,0 -2.666679,0 -2.666679,0c0,0 -43.333533,-0.333335 -43.333533,-0.333335c0,0 -11.000051,-90.667085 -11.000051,-90.667085c0,0 -33.666822,-35.333496 -33.666822,-35.333496c0,0 -4.000018,-2.666679 -4.000018,-2.666679c0,0 -81.000373,-0.66667 -81.000373,-0.66667c0,0 -3.666684,1.666674 -3.666684,1.666674c0,0 -1.666674,3.666684 -1.666674,3.666684c0,0 0,3.666684 0,3.666684c0,0 2.000009,4.000018 2.000009,4.000018c0,0 3.666684,0.66667 3.666684,0.66667c0,0 75.667015,0.333335 75.667015,0.333335c0,0 11.000051,13.66673 11.000051,13.66673z" fill-opacity="null" stroke-opacity="null" stroke-width="1.5" stroke="#fff" fill="#ffffff"/>
  <ellipse stroke="#fff" ry="33.333488" rx="27.333459" id="svg_10" cy="148.334015" cx="376.335066" fill-opacity="null" stroke-opacity="null" stroke-width="1.5" fill="#ffffff"/>
  <path id="svg_12" d="m84.333722,175.667476c0,0 118.000544,0 118.000544,0c0,0 0,13.66673 0,13.66673c0,0 -118.000544,-0.333335 -118.000544,-0.333335c0,0 0,-13.333395 0,-13.333395z" fill-opacity="null" stroke-opacity="null" stroke-width="1.5" stroke="#fff" fill="#ffffff"/>
  <path id="svg_13" d="m95.333773,202.667601c0,0 146.334008,-0.333335 146.334008,-0.333335c0,0 0.333335,14.000065 0.333335,14.000065c0,0 -146.667343,0 -146.667343,0c0,0 0,-13.66673 0,-13.66673z" fill-opacity="null" stroke-opacity="null" stroke-width="1.5" stroke="#fff" fill="#ffffff"/>
  <path id="svg_14" d="m107.000493,230.00106c0,0 106.333823,0 106.333823,0c0,0 0,14.000065 0,14.000065c0,0 -106.667158,-0.66667 -106.667158,-0.66667c0,0 0.333335,-13.333395 0.333335,-13.333395z" fill-opacity="null" stroke-opacity="null" stroke-width="1.5" stroke="#fff" fill="#ffffff"/>
  <path id="svg_15" d="m118.000544,257.001185c0,0 90.33375,0 90.33375,0c0,0 -0.333335,13.66673 -0.333335,13.66673c0,0 -90.33375,-0.333335 -90.33375,-0.333335c0,0 0.333335,-13.333395 0.333335,-13.333395z" fill-opacity="null" stroke-opacity="null" stroke-width="1.5" stroke="#fff" fill="#ffffff"/>
 </g>
</svg>