<?xml version="1.0" encoding="utf-8"?>
<!-- Generator: Adobe Illustrator 22.0.0, SVG Export Plug-In . SVG Version: 6.00 Build 0)  -->
<svg version="1.1" id="Capa_1" xmlns="http://www.w3.org/2000/svg" xmlns:xlink="http://www.w3.org/1999/xlink" x="0px" y="0px"
	 viewBox="0 0 284.9 284.9" style="enable-background:new 0 0 284.9 284.9;" xml:space="preserve">
<style type="text/css">
	.st0{fill:#00AD98;}
</style>
<g>
	<path class="st0" d="M272.6,81l-13.3-13.3c-1.8-1.8-3.8-2.7-6.1-2.7c-2.3,0-4.3,0.9-6.1,2.7L142.5,172.3L37.8,67.7
		C36.1,65.9,34,65,31.7,65c-2.3,0-4.3,0.9-6.1,2.7L12.3,81c-1.8,1.8-2.7,3.8-2.7,6.1c0,2.3,0.9,4.3,2.7,6.1l124,124
		c1.8,1.8,3.8,2.7,6.1,2.7c2.3,0,4.3-0.9,6.1-2.7l124.1-124c1.8-1.8,2.7-3.8,2.7-6.1C275.3,84.8,274.4,82.7,272.6,81z"/>
</g>
</svg>
