<?xml version="1.0" encoding="utf-8"?>
<!-- Generator: Adobe Illustrator 22.0.0, SVG Export Plug-In . SVG Version: 6.00 Build 0)  -->
<svg version="1.1" id="Capa_1" xmlns="http://www.w3.org/2000/svg" xmlns:xlink="http://www.w3.org/1999/xlink" x="0px" y="0px"
	 viewBox="0 0 33 33" style="enable-background:new 0 0 33 33;" xml:space="preserve">
<style type="text/css">
	.st0{fill:#FFFFFF;}
</style>
<g>
	<g>
		<path class="st0" d="M20,9.5l-1.8,0c-2,0-3.4,1.4-3.4,3.5v1.6H13c-0.2,0-0.3,0.1-0.3,0.3v2.3c0,0.2,0.1,0.3,0.3,0.3h1.8v5.8
			c0,0.2,0.1,0.3,0.3,0.3h2.4c0.2,0,0.3-0.1,0.3-0.3v-5.8h2.1c0.2,0,0.3-0.1,0.3-0.3l0-2.3c0-0.1,0-0.1-0.1-0.2
			c-0.1-0.1-0.1-0.1-0.2-0.1h-2.1v-1.4c0-0.7,0.2-1,1-1l1.2,0c0.2,0,0.3-0.1,0.3-0.3V9.8C20.3,9.6,20.2,9.5,20,9.5z"/>
	</g>
</g>
</svg>
