<?xml version="1.0" encoding="utf-8"?>
<!-- Generator: Adobe Illustrator 22.0.0, SVG Export Plug-In . SVG Version: 6.00 Build 0)  -->
<svg version="1.1" id="Capa_1" xmlns="http://www.w3.org/2000/svg" xmlns:xlink="http://www.w3.org/1999/xlink" x="0px" y="0px"
	 viewBox="0 0 33 33" style="enable-background:new 0 0 33 33;" xml:space="preserve">
<style type="text/css">
	.st0{fill:#FFFFFF;}
</style>
<g>
	<g>
		<g>
			<path class="st0" d="M19.1,9.5h-5.3c-2.4,0-4.4,2-4.4,4.4v5.3c0,2.4,2,4.4,4.4,4.4h5.3c2.4,0,4.4-2,4.4-4.4v-5.3
				C23.5,11.5,21.5,9.5,19.1,9.5z M22.2,19.1c0,1.7-1.4,3.1-3.1,3.1h-5.3c-1.7,0-3.1-1.4-3.1-3.1v-5.3c0-1.7,1.4-3.1,3.1-3.1h5.3
				c1.7,0,3.1,1.4,3.1,3.1V19.1z"/>
		</g>
	</g>
	<g>
		<g>
			<path class="st0" d="M16.5,13c-1.9,0-3.5,1.6-3.5,3.5s1.6,3.5,3.5,3.5s3.5-1.6,3.5-3.5S18.4,13,16.5,13z M16.5,18.7
				c-1.2,0-2.2-1-2.2-2.2c0-1.2,1-2.2,2.2-2.2s2.2,1,2.2,2.2C18.7,17.7,17.7,18.7,16.5,18.7z"/>
		</g>
	</g>
	<g>
		<g>
			<circle class="st0" cx="20.3" cy="12.7" r="0.6"/>
		</g>
	</g>
</g>
</svg>
