<?xml version="1.0" encoding="utf-8"?>
<!-- Generator: Adobe Illustrator 22.0.0, SVG Export Plug-In . SVG Version: 6.00 Build 0)  -->
<svg version="1.1" id="Capa_1" xmlns="http://www.w3.org/2000/svg" xmlns:xlink="http://www.w3.org/1999/xlink" x="0px" y="0px"
	 viewBox="0 0 33 33" style="enable-background:new 0 0 33 33;" xml:space="preserve">
<style type="text/css">
	.st0{fill:#FFFFFF;}
</style>
<g>
	<g>
		<g>
			<rect x="9.4" y="14" class="st0" width="3.1" height="9.5"/>
			<path class="st0" d="M22.8,14.9c-0.7-0.7-1.5-1.1-2.6-1.1c-0.4,0-0.8,0-1.1,0.1c-0.3,0.1-0.6,0.2-0.8,0.4
				c-0.2,0.2-0.4,0.3-0.5,0.5c-0.1,0.1-0.3,0.3-0.4,0.5V14h-3.1l0,0.5c0,0.3,0,1.2,0,2.8c0,1.6,0,3.6,0,6.2h3.1v-5.3
				c0-0.3,0-0.6,0.1-0.8c0.1-0.3,0.3-0.6,0.6-0.8c0.3-0.2,0.6-0.3,1-0.3c0.5,0,0.9,0.2,1.2,0.6c0.3,0.4,0.4,0.9,0.4,1.6v5.1h3.1
				v-5.4C23.8,16.7,23.5,15.6,22.8,14.9z"/>
			<path class="st0" d="M10.9,9.5c-0.5,0-1,0.2-1.3,0.5c-0.3,0.3-0.5,0.7-0.5,1.2c0,0.5,0.2,0.9,0.5,1.2c0.3,0.3,0.7,0.5,1.3,0.5h0
				c0.5,0,1-0.2,1.3-0.5c0.3-0.3,0.5-0.7,0.5-1.2c0-0.5-0.2-0.9-0.5-1.2C11.9,9.7,11.5,9.5,10.9,9.5z"/>
		</g>
	</g>
</g>
</svg>
