<?xml version="1.0" encoding="utf-8"?>
<!-- Generator: Adobe Illustrator 23.0.2, SVG Export Plug-In . SVG Version: 6.00 Build 0)  -->
<svg version="1.1" id="artwork" xmlns="http://www.w3.org/2000/svg" xmlns:xlink="http://www.w3.org/1999/xlink" x="0px" y="0px"
	 viewBox="0 0 135 40" style="enable-background:new 0 0 135 40;" xml:space="preserve">
<style type="text/css">
	.st0{fill:#FFFFFF;fill-opacity:0;}
	.st1{fill:#FFFFFF;}
	.st2{fill:#A6A6A6;}
	.st3{fill:#2B388F;stroke:#2B388F;}
	.st4{opacity:0.5;fill:#26A9E0;enable-background:new    ;}
	.st5{stroke:#000000;stroke-width:0.3;stroke-miterlimit:10;}
</style>
<rect x="-10" y="-10" class="st0" width="155" height="60"/>
<g>
	<g>
		<path class="st1" d="M130,40H5c-2.8,0-5-2.2-5-5V5c0-2.8,2.2-5,5-5h125c2.8,0,5,2.2,5,5v30C135,37.8,132.8,40,130,40z"/>
	</g>
</g>
<g>
	<g>
		<path class="st2" d="M130,0.8c2.3,0,4.2,1.9,4.2,4.2v30c0,2.3-1.9,4.2-4.2,4.2H5c-2.3,0-4.2-1.9-4.2-4.2V5c0-2.3,1.9-4.2,4.2-4.2
			L130,0.8 M130,0H5C2.2,0,0,2.3,0,5v30c0,2.8,2.2,5,5,5h125c2.8,0,5-2.2,5-5V5C135,2.3,132.8,0,130,0L130,0z"/>
	</g>
</g>
<g>
	<g id="dark-blue">
		<path class="st3" d="M44.2,15.9c-0.3-6.8-3.8-12-12.4-8.1c-8.7,4-19.5,6.5-17.8,13.4S28.1,32.8,37.5,31c1.3-0.2,2.5-0.5,3.5-0.8
			c1.1,1.2,3.2,3.3,4.4,3.4c0,0,0,0,0.1,0c0,0-1.7-2.5-2.1-4.2C50,26.3,44.4,21.8,44.2,15.9z"/>
	</g>
	<path id="light-blue" class="st4" d="M47.8,18.8c0-7.8-7-12-17.6-10.6c-16,2.2-16.8-0.3-14.4,11.7c1,4.8,2.8,9.5,6.4,11.8
		c-0.4,0.6-1.1,1.5-2,1.5c0,0,2.6,0,4.2-0.4c1.7,0.5,3.6,0.6,5.9,0.1C39.7,31,47.8,26.6,47.8,18.8"/>
	<g id="text">
		<path class="st1" d="M23,16.6v-4.1c0-0.1,0-0.1,0-0.2c0,0,0.1,0,0.2,0h1c0.1,0,0.1,0,0.2,0c0,0,0,0.1,0,0.2V14h1.2
			c0.1,0,0.1,0,0.2,0.1c0,0,0.1,0.1,0.1,0.2v0.5c0,0.1,0,0.1-0.1,0.2c0,0-0.1,0.1-0.2,0.1h-1.2v1.5c0,0.3,0,0.5,0.2,0.7
			c0.1,0.1,0.3,0.2,0.5,0.2c0.1,0,0.2,0,0.3,0c0.1,0,0.2,0,0.3,0h0.1c0.1,0,0.1,0,0.2,0.1c0,0,0.1,0.1,0.1,0.2v0.4
			c0,0,0,0.1-0.1,0.1c0,0-0.1,0.1-0.2,0.1c-0.3,0-0.7,0.1-1.1,0.1C23.6,18.5,23,17.9,23,16.6z"/>
		<path class="st1" d="M27.3,17.9c-0.4-0.4-0.7-1-0.7-1.8c0-0.8,0.2-1.4,0.7-1.9c0.4-0.4,1.1-0.6,1.9-0.6s1.4,0.2,1.9,0.6
			c0.4,0.4,0.7,1,0.7,1.8v0.2c0,0.1,0,0.1-0.1,0.2c0,0.1-0.1,0.1-0.2,0.1h-3.3c0,0.3,0.1,0.6,0.3,0.7c0.2,0.1,0.4,0.2,0.8,0.2
			s0.7-0.1,0.8-0.3c0.1-0.1,0.3-0.2,0.5-0.2h0.6c0.1,0,0.1,0,0.2,0.1c0,0,0.1,0.1,0.1,0.2c0,0.8-0.8,1.2-2.3,1.2
			C28.4,18.5,27.7,18.3,27.3,17.9z M28.1,15.6h2c0-0.7-0.3-1-1-1S28.2,14.9,28.1,15.6z"/>
		<path class="st1" d="M31.9,18.3C31.9,18.3,31.9,18.2,31.9,18.3c0-0.1,0-0.2,0-0.2l1.5-2l-1.4-2V14v-0.1h0.1H33
			c0.3,0,0.5,0.1,0.7,0.4l0.7,1.1l0.7-1.1c0.1-0.2,0.4-0.4,0.7-0.4h0.9h0.1V14v0.1l-1.4,2l1.5,2v0.1c0,0,0,0,0,0.1s-0.1,0.1-0.2,0.1
			h-0.9c-0.2,0-0.5-0.1-0.7-0.4l-0.8-1.1L33.5,18c-0.2,0.2-0.4,0.4-0.7,0.4h-0.9C32,18.4,31.9,18.4,31.9,18.3z"/>
		<path class="st1" d="M37.8,16.6v-4.1c0-0.1,0-0.1,0.1-0.2c0,0,0.1,0,0.2,0h1c0.1,0,0.1,0,0.2,0c0,0,0.1,0.1,0.1,0.2V14h1.2
			c0.1,0,0.1,0,0.2,0.1c0,0,0.1,0.1,0.1,0.2v0.5c0,0.1,0,0.1-0.1,0.2c0,0-0.1,0.1-0.2,0.1h-1.2v1.5c0,0.3,0,0.5,0.2,0.7
			c0.1,0.1,0.3,0.2,0.5,0.2c0.1,0,0.2,0,0.3,0s0.2,0,0.3,0h0.1c0.1,0,0.1,0,0.2,0.1c0,0,0.1,0.1,0.1,0.2v0.4c0,0,0,0.1-0.1,0.1
			c0,0-0.1,0.1-0.2,0.1c-0.3,0-0.7,0.1-1.1,0.1C38.4,18.5,37.8,17.9,37.8,16.6z"/>
	</g>
	<g id="local">
		<path class="st1" d="M21.3,26.2v-5.7c0-0.1,0-0.1,0-0.2c0,0,0.1-0.1,0.2-0.1h1c0.1,0,0.1,0,0.2,0.1c0,0,0,0.1,0,0.2v5.7
			c0,0.1,0,0.1,0,0.2c0,0-0.1,0.1-0.2,0.1h-1c-0.1,0-0.1,0-0.2-0.1C21.3,26.3,21.3,26.2,21.3,26.2z"/>
		<path class="st1" d="M24.2,25.9c-0.4-0.4-0.7-1-0.7-1.9s0.2-1.4,0.7-1.9c0.4-0.4,1.1-0.6,2-0.6s1.5,0.2,2,0.6
			c0.4,0.4,0.7,1,0.7,1.9s-0.2,1.4-0.7,1.9c-0.4,0.4-1.1,0.6-2,0.6C25.3,26.5,24.7,26.3,24.2,25.9z M25.3,22.9
			c-0.2,0.2-0.2,0.6-0.2,1.1s0.1,0.9,0.2,1.1s0.4,0.3,0.8,0.3s0.7-0.1,0.8-0.3c0.2-0.2,0.2-0.6,0.2-1.1s-0.1-0.9-0.2-1.1
			s-0.5-0.3-0.8-0.3S25.5,22.7,25.3,22.9z"/>
		<path class="st1" d="M29.4,24c0-0.8,0.2-1.4,0.7-1.9c0.4-0.4,1.1-0.6,1.9-0.6s1.4,0.1,1.8,0.4s0.6,0.6,0.6,1.1
			c0,0.1,0,0.1-0.1,0.2c0,0-0.1,0.1-0.2,0.1h-0.6c-0.2,0-0.4-0.1-0.5-0.3c-0.1-0.2-0.5-0.4-0.9-0.4s-0.7,0.1-0.9,0.3
			C31.1,23.1,31,23.5,31,24s0.1,0.9,0.2,1.1s0.5,0.3,0.9,0.3c0.4,0,0.8-0.1,0.9-0.4c0.1-0.2,0.3-0.3,0.5-0.3h0.6
			c0.1,0,0.1,0,0.2,0.1c0,0,0.1,0.1,0.1,0.2c0,0.5-0.2,0.9-0.6,1.1c-0.4,0.2-1,0.4-1.8,0.4s-1.5-0.2-2-0.6
			C29.6,25.4,29.4,24.9,29.4,24z"/>
		<path class="st1" d="M35.4,26.1c-0.4-0.2-0.6-0.6-0.6-1.1s0.2-0.9,0.6-1.1c0.4-0.2,0.9-0.4,1.5-0.4h1.4c0-0.3-0.1-0.6-0.2-0.7
			c-0.1-0.1-0.4-0.2-0.7-0.2c-0.4,0-0.7,0.1-0.8,0.3c-0.1,0.1-0.3,0.2-0.5,0.2h-0.7c-0.1,0-0.1,0-0.2-0.1c0,0-0.1-0.1-0.1-0.2
			c0-0.8,0.8-1.2,2.3-1.2c0.7,0,1.2,0.1,1.7,0.4c0.4,0.3,0.6,0.8,0.6,1.4v2.7c0,0.1,0,0.1-0.1,0.2c0,0-0.1,0.1-0.2,0.1h-0.8
			c-0.1,0-0.1,0-0.2-0.1c0,0-0.1-0.1-0.1-0.2V26c-0.4,0.3-1,0.5-1.6,0.5C36.3,26.5,35.8,26.4,35.4,26.1z M36.4,25
			c0,0.1,0,0.3,0.2,0.4c0.1,0.1,0.3,0.1,0.5,0.1c0.4,0,0.9-0.1,1.3-0.4v-0.7H37c-0.2,0-0.3,0-0.5,0.1C36.4,24.7,36.4,24.8,36.4,25z"
			/>
		<path class="st1" d="M40.9,26.2v-5.7c0-0.1,0-0.1,0.1-0.2c0,0,0.1-0.1,0.2-0.1h1c0.1,0,0.1,0,0.2,0.1c0,0,0.1,0.1,0.1,0.2v5.7
			c0,0.1,0,0.1-0.1,0.2c0,0-0.1,0.1-0.2,0.1h-1c-0.1,0-0.1,0-0.2-0.1C40.9,26.3,40.9,26.2,40.9,26.2z"/>
	</g>
</g>
<g>
	<path class="st5" d="M56.4,9.2h1l3.2,4.8l3.2-4.8h1v8.9h-1v-7.2l-3.2,4.8h-0.1l-3.2-4.8v7.2h-1L56.4,9.2L56.4,9.2z"/>
	<path class="st5" d="M66.8,14.8L66.8,14.8c0-1.9,1.3-3.5,3.1-3.5c1.9,0,3,1.6,3,3.5c0,0.2,0,0.2,0,0.3h-5.2
		c0.2,1.4,1.2,2.2,2.3,2.2c0.9,0,1.5-0.4,2.1-0.9l0.6,0.6c-0.7,0.8-1.5,1.2-2.7,1.2C68.3,18.2,66.8,16.9,66.8,14.8z M72.1,14.4
		c-0.1-1.2-0.8-2.2-2.1-2.2c-1.2,0-2,1-2.1,2.2H72.1z"/>
	<path class="st5" d="M74.2,17.3l0.5-0.7c0.7,0.5,1.5,0.9,2.3,0.9s1.4-0.4,1.4-1l0,0c0-0.7-0.8-0.9-1.6-1.2c-1-0.3-2.2-0.7-2.2-1.9
		l0,0c0-1.1,1-1.9,2.2-1.9c0.8,0,1.7,0.3,2.3,0.7L78.7,13c-0.6-0.4-1.3-0.7-1.9-0.7c-0.8,0-1.3,0.4-1.3,1l0,0c0,0.6,0.8,0.9,1.7,1.1
		c1,0.3,2.1,0.7,2.1,1.9l0,0c0,1.3-1,2-2.3,2C76,18.2,75,17.8,74.2,17.3z"/>
	<path class="st5" d="M80.4,17.3l0.5-0.7c0.7,0.5,1.5,0.9,2.3,0.9s1.4-0.4,1.4-1l0,0c0-0.7-0.8-0.9-1.6-1.2c-1-0.3-2.2-0.7-2.2-1.9
		l0,0c0-1.1,1-1.9,2.2-1.9c0.8,0,1.7,0.3,2.3,0.7L84.9,13c-0.6-0.4-1.3-0.7-1.9-0.7c-0.8,0-1.3,0.4-1.3,1l0,0c0,0.6,0.8,0.9,1.7,1.1
		c1,0.3,2.1,0.7,2.1,1.9l0,0c0,1.3-1,2-2.3,2C82.2,18.2,81.2,17.8,80.4,17.3z"/>
	<path class="st5" d="M86.8,16.2L86.8,16.2c0-1.4,1.2-2.1,2.8-2.1c0.8,0,1.4,0.1,2,0.3v-0.3c0-1.2-0.7-1.8-2-1.8
		c-0.8,0-1.4,0.2-2,0.5L87.4,12c0.7-0.3,1.4-0.6,2.4-0.6c0.9,0,1.6,0.3,2.1,0.7c0.5,0.5,0.7,1.1,0.7,1.9v4h-1v-1
		c-0.5,0.6-1.2,1.1-2.4,1.1C88,18.2,86.8,17.5,86.8,16.2z M91.6,15.7V15c-0.5-0.2-1.1-0.3-1.9-0.3c-1.2,0-1.9,0.5-1.9,1.4l0,0
		c0,0.8,0.8,1.3,1.7,1.3C90.6,17.5,91.6,16.7,91.6,15.7z"/>
	<path class="st5" d="M94.5,19.3l0.5-0.8c0.8,0.6,1.6,0.9,2.5,0.9c1.5,0,2.4-0.8,2.4-2.3v-0.8c-0.6,0.8-1.4,1.4-2.6,1.4
		c-1.6,0-3.1-1.2-3.1-3l0,0c0-1.9,1.5-3.1,3.1-3.1c1.2,0,2,0.6,2.6,1.3v-1.2h1V17c0,1-0.3,1.8-0.8,2.3c-0.6,0.6-1.5,0.9-2.5,0.9
		C96.4,20.2,95.4,19.9,94.5,19.3z M99.9,14.5L99.9,14.5c0-1.4-1.2-2.2-2.4-2.2s-2.3,0.9-2.3,2.2l0,0c0,1.3,1.1,2.2,2.3,2.2
		C98.7,16.7,99.9,15.8,99.9,14.5z"/>
	<path class="st5" d="M103,9h1.1v1.1H103V9z M103.1,11.5h1v6.6h-1V11.5z"/>
	<path class="st5" d="M106.4,11.5h1v1.2c0.5-0.7,1.1-1.3,2.2-1.3c1.6,0,2.5,1.1,2.5,2.6v4.1h-1v-3.8c0-1.2-0.7-2-1.8-2
		c-1.1,0-2,0.8-2,2.1v3.8h-0.9L106.4,11.5L106.4,11.5z"/>
	<path class="st5" d="M114.1,19.3l0.5-0.8c0.8,0.6,1.6,0.9,2.5,0.9c1.5,0,2.4-0.8,2.4-2.3v-0.8c-0.6,0.8-1.4,1.4-2.6,1.4
		c-1.6,0-3.1-1.2-3.1-3l0,0c0-1.9,1.5-3.1,3.1-3.1c1.2,0,2,0.6,2.6,1.3v-1.2h1V17c0,1-0.3,1.8-0.8,2.3c-0.6,0.6-1.5,0.9-2.5,0.9
		C116,20.2,115,19.9,114.1,19.3z M119.5,14.5L119.5,14.5c0-1.4-1.2-2.2-2.4-2.2s-2.3,0.9-2.3,2.2l0,0c0,1.3,1.1,2.2,2.3,2.2
		S119.5,15.8,119.5,14.5z"/>
	<path class="st5" d="M56.4,21.9h3.4c2,0,3.4,1.1,3.4,2.8l0,0c0,1.9-1.6,2.9-3.5,2.9h-2.2v3.2h-1L56.4,21.9L56.4,21.9z M59.6,26.7
		c1.5,0,2.4-0.8,2.4-1.9l0,0c0-1.3-1-1.9-2.4-1.9h-2.2v3.9C57.4,26.7,59.6,26.7,59.6,26.7z"/>
	<path class="st5" d="M64.1,28.9L64.1,28.9c0-1.4,1.2-2.1,2.8-2.1c0.9,0,1.4,0.1,2,0.3v-0.3c0-1.2-0.7-1.8-1.9-1.8
		c-0.8,0-1.4,0.2-2,0.5l-0.3-0.8c0.7-0.4,1.4-0.6,2.4-0.6c0.9,0,1.6,0.3,2.1,0.7c0.5,0.5,0.7,1.1,0.7,1.9v4H69v-1
		c-0.5,0.6-1.2,1.1-2.4,1.1C65.3,31,64.1,30.2,64.1,28.9z M68.9,28.4v-0.7c-0.5-0.2-1.1-0.3-1.9-0.3c-1.2,0-1.9,0.5-1.9,1.4l0,0
		c0,0.8,0.8,1.3,1.7,1.3C67.9,30.2,68.9,29.4,68.9,28.4z"/>
	<path class="st5" d="M71.9,24.2h1V26c0.5-1.1,1.4-1.9,2.7-1.8v1.1h-0.1c-1.4,0-2.6,1-2.6,3v2.6h-1V24.2L71.9,24.2z"/>
	<path class="st5" d="M77.4,29.1v-4h-0.9v-0.9h0.9v-2h1v2h2.1v0.9h-2.1v3.8c0,0.8,0.5,1.1,1.1,1.1c0.3,0,0.6-0.1,1-0.2v0.9
		c-0.4,0.2-0.7,0.3-1.2,0.3C78.2,30.9,77.4,30.4,77.4,29.1z"/>
	<path class="st5" d="M82.2,24.2h1v1.2c0.5-0.7,1.1-1.3,2.2-1.3c1.6,0,2.5,1.1,2.5,2.6v4.1h-1V27c0-1.2-0.7-2-1.8-2
		c-1.1,0-2,0.8-2,2v3.8h-1L82.2,24.2L82.2,24.2z"/>
	<path class="st5" d="M89.6,27.5L89.6,27.5c0-1.9,1.3-3.5,3.1-3.5c1.9,0,3,1.5,3,3.5c0,0.2,0,0.2,0,0.3h-5.2
		c0.2,1.4,1.2,2.2,2.3,2.2c0.9,0,1.5-0.4,2.1-0.9l0.6,0.6c-0.7,0.7-1.5,1.2-2.7,1.2C91.1,31,89.6,29.6,89.6,27.5z M94.8,27.1
		c-0.1-1.2-0.8-2.2-2.1-2.2c-1.2,0-2,1-2.1,2.2H94.8z"/>
	<path class="st5" d="M97.5,24.2h1V26c0.5-1.1,1.4-1.9,2.7-1.8v1.1h-0.1c-1.4,0-2.6,1-2.6,3v2.6h-1V24.2L97.5,24.2z"/>
</g>
</svg>
