<?xml version="1.0" encoding="utf-8"?>
<!-- Generator: Adobe Illustrator 22.0.0, SVG Export Plug-In . SVG Version: 6.00 Build 0)  -->
<svg version="1.1" id="Capa_1" xmlns="http://www.w3.org/2000/svg" xmlns:xlink="http://www.w3.org/1999/xlink" x="0px" y="0px"
	 viewBox="0 0 150 150" style="enable-background:new 0 0 150 150;" xml:space="preserve">
<style type="text/css">
	.st0{fill:#FFFFFF;}
</style>
<g>
	<g>
		<path class="st0" d="M142.7,33.9c-4-7.1-8.4-8.5-17.2-9c-8.9-0.6-31.1-0.9-50.4-0.9c-19.3,0-41.6,0.2-50.5,0.8
			c-8.9,0.5-13.2,1.8-17.3,9C3.1,41.1,1,53.3,1,75c0,0,0,0,0,0c0,0,0,0,0,0v0c0,21.5,2.1,33.9,6.3,41c4.1,7.1,8.4,8.4,17.3,9
			c8.9,0.5,31.2,0.8,50.5,0.8c19.3,0,41.6-0.3,50.5-0.8c8.9-0.6,13.2-1.9,17.2-9c4.2-7.1,6.3-19.4,6.3-41c0,0,0,0,0,0c0,0,0,0,0,0
			C149,53.3,146.9,41.1,142.7,33.9z M56.5,102.8V47.3L102.8,75L56.5,102.8z"/>
	</g>
</g>
</svg>
